<svg xmlns="http://www.w3.org/2000/svg" viewBox="0 0 8 8" shape-rendering="optimizeSpeed" width="64" height="64"><path fill="hsl(227 83% 48%)" d="M0,0H8V8H0z"/><path fill="hsl(253 42% 59%)" d="M0,1h1v1h-1zM7,1h1v1h-1zM1,1h1v1h-1zM6,1h1v1h-1zM3,1h1v1h-1zM4,1h1v1h-1zM2,2h1v1h-1zM5,2h1v1h-1zM3,2h1v1h-1zM4,2h1v1h-1zM3,3h1v1h-1zM4,3h1v1h-1zM0,4h1v1h-1zM7,4h1v1h-1zM2,4h1v1h-1zM5,4h1v1h-1zM0,5h1v1h-1zM7,5h1v1h-1zM0,6h1v1h-1zM7,6h1v1h-1zM1,6h1v1h-1zM6,6h1v1h-1zM2,6h1v1h-1zM5,6h1v1h-1zM2,7h1v1h-1zM5,7h1v1h-1z"/><path fill="hsl(0 88% 45%)" d="M1,2h1v1h-1zM6,2h1v1h-1zM1,3h1v1h-1zM6,3h1v1h-1zM3,6h1v1h-1zM4,6h1v1h-1zM1,7h1v1h-1zM6,7h1v1h-1z"/></svg>